<?xml version="1.0" standalone="no"?>
<!DOCTYPE svg PUBLIC "-//W3C//DTD SVG 20010904//EN"
 "http://www.w3.org/TR/2001/REC-SVG-20010904/DTD/svg10.dtd">
<svg version="1.0" xmlns="http://www.w3.org/2000/svg"
 width="470.000000pt" height="470.000000pt" viewBox="0 0 470.000000 470.000000"
 preserveAspectRatio="xMidYMid meet">
<metadata>
Created by potrace 1.14, written by Peter Selinger 2001-2017
</metadata>
<g transform="translate(0.000000,470.000000) scale(0.100000,-0.100000)"
fill="#000000" stroke="none">
<path d="M1282 4477 c-94 -95 -172 -177 -172 -182 0 -6 90 -100 199 -209 l200
-199 -64 -48 c-137 -104 -251 -227 -345 -373 l-43 -66 -353 0 -354 0 0 -250 0
-250 266 0 266 0 -7 -22 c-4 -13 -9 -125 -12 -250 l-5 -228 -254 0 -254 0 0
-255 0 -255 254 0 254 0 5 -217 c2 -120 8 -228 12 -240 l7 -23 -266 0 -266 0
0 -255 0 -255 355 0 354 0 16 -30 c8 -16 49 -74 90 -129 216 -287 552 -496
911 -568 128 -25 455 -25 574 0 361 77 691 284 905 569 41 54 82 112 90 128
l16 30 354 0 355 0 0 255 0 255 -266 0 -266 0 7 23 c4 12 9 120 12 240 l5 217
254 0 254 0 0 255 0 255 -254 0 -254 0 -5 228 c-3 125 -8 237 -12 250 l-7 22
266 0 266 0 0 250 0 250 -354 0 -354 0 -43 67 c-94 144 -220 279 -361 385
l-47 35 200 199 c109 109 199 203 199 209 0 6 -78 89 -174 184 l-175 174 -275
-270 -276 -270 -87 14 c-115 19 -411 19 -525 0 l-87 -14 -275 269 c-151 147
-276 268 -278 268 -2 0 -81 -78 -176 -173z m1578 -1827 l0 -250 -500 0 -500 0
0 250 0 250 500 0 500 0 0 -250z m0 -1000 l0 -240 -500 0 -500 0 0 240 0 240
500 0 500 0 0 -240z"/>
</g>
</svg>
